<svg width="28" height="26" viewBox="0 0 28 26" fill="none" xmlns="http://www.w3.org/2000/svg">
<path d="M26.175 10.0554L26.1147 9.0983C26.1716 5.27389 21.5013 1.26797 14.1755 1.17303C6.84963 1.07809 2.063 4.96145 2.00612 8.78587C2.0013 9.10989 1.91644 9.74099 1.91644 9.74099C1.11849 11.0362 0.685717 12.4993 0.658652 13.9932C0.571067 19.882 5.9092 24.7251 13.8237 24.8277C21.7381 24.9303 27.2192 20.2274 27.3068 14.3386C27.3245 12.8444 26.935 11.3705 26.175 10.0554Z" fill="white" stroke="#2D3035" stroke-width="0.8" stroke-linecap="round" stroke-linejoin="round"/>
<path d="M3.02289 6.32289C2.91653 6.30178 2.4075 3.17644 3.8857 1.49438C3.8857 1.49438 5.43744 -0.125665 8.38688 3.33754" fill="white"/>
<path d="M5.70193 4.49672C5.56318 4.04221 5.24277 3.64355 4.98225 3.24489C4.70276 2.82024 4.50114 2.41098 3.98409 2.2338C3.55588 2.08647 3.24246 2.31758 3.12568 2.63632C3.03235 2.69693 2.95315 2.77564 2.89311 2.86743C2.3611 3.66282 2.58368 4.48613 2.65155 5.36241C2.68549 5.80537 2.62959 6.28299 3.08375 6.55358C3.49 6.79624 4.01204 6.67876 4.39533 6.45728C5.16092 6.0307 5.99239 5.45293 5.70193 4.49672Z" fill="#FFEBF2"/>
<path d="M3.02657 6.34118C2.91052 5.87526 2.10701 3.25037 3.90575 1.49598C3.90575 1.49598 5.4887 -0.129393 8.4991 3.34657" stroke="#2D3035" stroke-width="0.8" stroke-linecap="round" stroke-linejoin="round"/>
<path d="M5.05216 5.89069C5.05216 5.89069 5.72273 5.12539 5.3801 4.14018C5.3801 4.14018 4.35316 1.4718 3.19162 2.5004" stroke="#2D3035" stroke-width="0.8" stroke-linecap="round" stroke-linejoin="round"/>
<path d="M14.1755 1.17311L13.8827 1.16931C13.4718 1.72762 12.4413 3.35347 13.1328 5.16698C14.1666 7.85573 16.7156 7.32044 18.3152 7.96961C19.8727 8.60133 21.0712 9.9583 22.7595 10.0469C24.4207 10.1342 25.4743 9.66498 26.1192 9.20647C26.1157 9.16991 26.1142 9.1332 26.1147 9.0965C26.1716 5.27396 21.5003 1.26803 14.1755 1.17311Z" fill="#C1905C" stroke="#2D3035" stroke-width="0.8" stroke-linecap="round" stroke-linejoin="round"/>
<path d="M25.1756 6.60994C25.2825 6.5916 25.8843 3.48066 24.4577 1.76095C24.4577 1.76095 22.9537 0.101305 19.9034 3.48675" fill="#C1905C"/>
<path d="M22.2193 4.43429C22.3648 3.98162 22.6913 3.58715 22.9568 3.1919C23.2437 2.77091 23.4514 2.36432 23.9703 2.19384C24.4008 2.05207 24.7109 2.28723 24.8229 2.60745C24.9152 2.66951 24.9932 2.74919 25.0521 2.84155C25.5715 3.64375 25.3366 4.46409 25.2567 5.33942C25.2151 5.78188 25.2649 6.2602 24.8056 6.52486C24.3957 6.76223 23.8762 6.63801 23.4951 6.41157C22.7336 5.97507 21.9135 5.38662 22.2193 4.43429Z" fill="#FFEBF2"/>
<path d="M25.1756 6.40037C25.1756 6.40037 25.8843 3.48066 24.4577 1.76095C24.4577 1.76095 22.9537 0.101305 19.9034 3.48675" stroke="#2D3035" stroke-width="0.8" stroke-linecap="round" stroke-linejoin="round"/>
<path d="M23.156 6.1254C23.156 6.1254 21.7922 5.87537 22.5956 4.00035C22.5956 4.00035 23.8007 1.37537 25.0061 2.71405" stroke="#2D3035" stroke-width="0.8" stroke-linecap="round" stroke-linejoin="round"/>
<path d="M12.1508 10.0056L12.1499 10.0056C11.9283 10.0027 11.7464 10.1563 11.7435 10.3486L11.7316 11.152C11.7287 11.3443 11.906 11.5025 12.1276 11.5054L12.1285 11.5054C12.3501 11.5083 12.5321 11.3547 12.535 11.1624L12.5469 10.359C12.5498 10.1667 12.3724 10.0084 12.1508 10.0056Z" fill="#2D3035"/>
<path d="M16.1682 10.0004H16.1673C15.9457 10.0004 15.766 10.1563 15.766 10.3486V11.1521C15.766 11.3444 15.9457 11.5004 16.1673 11.5004H16.1682C16.3898 11.5004 16.5695 11.3444 16.5695 11.1521V10.3486C16.5695 10.1563 16.3898 10.0004 16.1682 10.0004Z" fill="#2D3035"/>
<path d="M14.5237 11.7995L14.5586 11.7832L14.5237 11.7995Z" fill="#2D3035" stroke="#2D3035" stroke-width="0.8"/>
<path d="M17.7747 11.1254C17.7747 11.1254 21.9067 9.18843 25.006 10.3976" stroke="#2D3035" stroke-width="0.8" stroke-linecap="round" stroke-linejoin="round"/>
<path d="M17.7747 12.6023C17.7747 12.6023 22.2523 11.3462 25.006 13.3362" stroke="#2D3035" stroke-width="0.8" stroke-linecap="round" stroke-linejoin="round"/>
<path d="M10.1418 11.1254C10.1418 11.1254 6.00975 9.18843 2.9105 10.3976" stroke="#2D3035" stroke-width="0.8" stroke-linecap="round" stroke-linejoin="round"/>
<path d="M10.1418 12.6023C10.1418 12.6023 5.66419 11.3462 2.9105 13.3362" stroke="#2D3035" stroke-width="0.8" stroke-linecap="round" stroke-linejoin="round"/>
</svg>
