<svg width="27" height="26" viewBox="0 0 27 26" fill="none" xmlns="http://www.w3.org/2000/svg">
<path d="M25.9101 18.0658C25.8522 17.4266 25.7382 16.7933 25.5693 16.1727C25.5772 16.1499 25.5798 16.1256 25.5769 16.1017C25.574 16.0778 25.5657 16.0549 25.5525 16.0344C25.5353 16.004 25.5193 15.9731 25.5032 15.9428C25.4646 15.8174 25.44 15.748 25.44 15.748L25.4048 15.7475C25.0305 14.9497 24.9408 14.0676 24.9335 13.1947C24.9287 12.5372 25.0663 11.2077 25.0663 11.2077C25.0825 11.106 25.0976 11.0065 25.1127 10.9075C25.1165 10.8812 25.1209 10.8528 25.1246 10.8288C25.1309 10.7883 25.136 10.7484 25.1423 10.7084C25.1537 10.6297 25.165 10.551 25.1758 10.4744L25.176 10.4607C25.183 10.4109 25.1894 10.3623 25.1958 10.313C25.2054 10.242 25.2155 10.1709 25.2244 10.1014C25.2309 10.0505 25.2367 10.0013 25.2425 9.95098C25.2509 9.8848 25.2592 9.81862 25.267 9.75352C25.2729 9.7021 25.2787 9.65232 25.284 9.60198C25.2912 9.53962 25.2983 9.47672 25.3049 9.41544C25.3102 9.36456 25.3149 9.31531 25.3201 9.26498C25.3261 9.20589 25.3321 9.14625 25.3375 9.0877C25.3422 9.0379 25.3469 8.98921 25.351 8.93995C25.3551 8.8907 25.3612 8.82613 25.366 8.76976C25.3708 8.71339 25.3731 8.67343 25.3772 8.62527C25.3813 8.57712 25.3856 8.51581 25.3892 8.46107C25.3928 8.40633 25.3951 8.36691 25.3981 8.31983C25.401 8.27275 25.4047 8.21472 25.4077 8.16326C25.4107 8.1118 25.4125 8.07128 25.4148 8.02584C25.4172 7.9804 25.4197 7.92455 25.4221 7.87472C25.4246 7.8249 25.4234 7.78544 25.424 7.74162C25.4247 7.69779 25.4255 7.64357 25.4262 7.59537C25.4268 7.54716 25.4274 7.50881 25.428 7.46608C25.4286 7.42336 25.4294 7.37243 25.43 7.32641C25.4307 7.2804 25.4312 7.24205 25.4318 7.20042C25.4324 7.15879 25.4332 7.11004 25.4338 7.06567C25.4344 7.0213 25.435 6.98459 25.4355 6.9446C25.4361 6.90462 25.4368 6.85697 25.434 6.81419C25.4312 6.77142 25.4351 6.73586 25.4311 6.69745C25.4271 6.65905 25.4284 6.61305 25.4273 6.57195C25.4261 6.53084 25.4244 6.4963 25.4226 6.45902C25.4209 6.42174 25.4187 6.37788 25.4164 6.33785C25.4141 6.29783 25.4123 6.26548 25.41 6.22819C25.4077 6.19091 25.4049 6.15032 25.402 6.11193C25.3992 6.07354 25.3968 6.04174 25.3939 6.00718C25.391 5.97263 25.3876 5.93204 25.3841 5.89747C25.3806 5.86291 25.3776 5.82999 25.3747 5.79653L25.3626 5.6868C25.3591 5.65443 25.3556 5.62205 25.3515 5.59022C25.3474 5.55839 25.3423 5.52107 25.3377 5.48649C25.333 5.45191 25.3294 5.42446 25.3248 5.39427C25.3201 5.36407 25.3149 5.3273 25.3097 5.29436C25.3045 5.26142 25.3003 5.23506 25.295 5.20595C25.2898 5.17684 25.284 5.14225 25.2782 5.1104L25.2624 5.02581C25.256 4.99449 25.2496 4.96428 25.2432 4.93406C25.2368 4.90384 25.232 4.87913 25.2262 4.8533C25.2203 4.82747 25.2128 4.79394 25.2058 4.76481C25.1988 4.73568 25.1935 4.71315 25.1876 4.68842C25.1817 4.66368 25.1724 4.63342 25.1649 4.60319L25.1455 4.53061C25.1379 4.50311 25.1298 4.47561 25.1216 4.4492C25.1135 4.4228 25.108 4.403 25.101 4.38044C25.0939 4.35788 25.0841 4.32543 25.0754 4.30176C25.0666 4.27808 25.0612 4.25829 25.0541 4.23738C25.047 4.21646 25.0355 4.18617 25.0262 4.16084C25.0169 4.13551 25.012 4.12066 25.0043 4.10084L24.9747 4.02592C24.967 4.00774 24.9598 3.98956 24.9527 3.97084C24.9456 3.95212 24.9307 3.92015 24.9191 3.89534C24.9125 3.87991 24.9053 3.86337 24.8981 3.84794C24.8855 3.82037 24.8722 3.7928 24.8589 3.76742C24.8534 3.7553 24.8473 3.74315 24.8418 3.73157C24.8224 3.69406 24.803 3.65764 24.7831 3.62121C24.7831 3.61683 24.7781 3.61293 24.7753 3.60851C24.7581 3.5776 24.7403 3.54723 24.7197 3.51792L24.6974 3.4831L24.6574 3.42066C24.6485 3.40794 24.6395 3.39577 24.6312 3.38306L24.5933 3.32776C24.5838 3.31504 24.5743 3.30285 24.5642 3.29066C24.5542 3.27847 24.5397 3.25801 24.5274 3.24251C24.5151 3.227 24.5072 3.21812 24.4972 3.20648C24.4871 3.19484 24.4726 3.17658 24.4597 3.16271C24.4468 3.14884 24.439 3.13996 24.4283 3.12832L24.3913 3.08838L24.3588 3.05616L24.3212 3.0195C24.31 3.00894 24.2987 2.99948 24.2875 2.98946C24.2763 2.97945 24.2622 2.96666 24.2493 2.95553L24.2156 2.92823L24.1773 2.89705L24.1424 2.87138L24.1036 2.84347L24.0686 2.82053L24.0292 2.7948L23.9936 2.77351L23.9541 2.75106L23.9185 2.73195L23.8785 2.71115L23.8423 2.69423L23.8021 2.67616L23.7654 2.66089L23.7252 2.64556L23.6884 2.63246L23.6482 2.61877L23.6114 2.60732L23.5706 2.59582L23.5337 2.58656L23.4929 2.5767L23.456 2.56909L23.4152 2.56141L23.3783 2.55545L23.338 2.54997L23.3011 2.54511L23.2602 2.54127L23.2238 2.54078C23.2101 2.5406 23.197 2.54042 23.1834 2.54024L23.147 2.53976L23.0707 2.53874L23.0303 2.5382L22.9951 2.53773L22.9546 2.54048L22.9199 2.54274L22.88 2.54714L22.8458 2.55052L22.8053 2.556L22.7723 2.5605L22.7318 2.56707L22.6998 2.57268L22.6587 2.58144L22.6285 2.58761L22.5857 2.59745L22.5583 2.60366L22.5126 2.6162L22.4897 2.62246L22.4223 2.64239C21.6067 2.8994 20.0231 4.21341 18.7994 5.30651C19.0287 2.93836 17.7728 0.629237 15.1588 1.30654C14.2662 1.53787 13.662 2.16314 13.1708 2.9269C12.9212 2.91534 12.6589 2.91457 12.3913 2.92688C10.4693 3.01351 9.16428 3.58997 8.30593 4.20582C7.36883 3.37805 6.40739 2.62118 5.82824 2.41949L5.76142 2.39777L5.73876 2.3909L5.69344 2.37715L5.66623 2.3702L5.62372 2.35923L5.59366 2.35224L5.55284 2.34239L5.52107 2.33593L5.48078 2.32828L5.44786 2.3229L5.40756 2.31634L5.37348 2.31205L5.33374 2.30658L5.29908 2.30339L5.25874 2.29956L5.22346 2.29909L5.18307 2.29855L5.11311 2.29761L5.0767 2.29713C5.06305 2.29694 5.0494 2.29676 5.03631 2.29659L4.99933 2.29609L4.9589 2.29884L4.92186 2.30272C4.90821 2.30254 4.89453 2.304 4.88083 2.30711L4.84435 2.31211L4.80329 2.31867L4.76621 2.32529L4.72511 2.33407L4.68802 2.34233L4.64689 2.35274L4.60977 2.36321C4.59606 2.36686 4.58291 2.37107 4.56918 2.37582L4.53203 2.38792L4.49142 2.40217L4.45423 2.41647L4.4136 2.43345L4.37695 2.4494L4.33627 2.46913L4.30017 2.48727L4.26003 2.50865L4.22389 2.52898L4.18371 2.55365L4.14811 2.57564L4.10847 2.60251L4.07284 2.62723L4.03371 2.65739L3.99862 2.68377L3.95946 2.71666L3.92547 2.74579L3.88683 2.78143C3.87587 2.79169 3.86435 2.80195 3.85338 2.81276L3.8147 2.85169L3.78293 2.88524C3.76965 2.89876 3.75692 2.91337 3.74419 2.928C3.73146 2.94262 3.72338 2.95074 3.71296 2.9632L3.67416 3.01034L3.64462 3.04666C3.63128 3.06401 3.6185 3.08192 3.60514 3.10092L3.57788 3.13726C3.56393 3.15735 3.54997 3.17852 3.53602 3.19915L3.51277 3.23282C3.49415 3.26161 3.47552 3.29148 3.45744 3.32192C3.45453 3.32627 3.45163 3.33008 3.44929 3.33443C3.4283 3.36976 3.40787 3.40565 3.38741 3.44318C3.38156 3.4546 3.37513 3.46657 3.36927 3.47854C3.35524 3.50465 3.34117 3.53295 3.32772 3.55797L3.30486 3.60479C3.29313 3.62929 3.28139 3.65378 3.26964 3.67937C3.2579 3.70497 3.25435 3.71478 3.2461 3.73385L3.21431 3.80794C3.20606 3.82755 3.19838 3.84717 3.1907 3.86679C3.18302 3.88641 3.17063 3.91693 3.16058 3.94309L3.13748 4.00634C3.128 4.03251 3.11853 4.05813 3.10961 4.08485C3.10069 4.11158 3.09473 4.13013 3.08701 4.15249C3.07929 4.17485 3.06916 4.20704 3.06081 4.23377C3.05246 4.26051 3.04646 4.2818 3.03929 4.30581C3.03211 4.32982 3.02257 4.36037 3.01417 4.3904C3.00577 4.42042 3.00093 4.44062 2.99373 4.46627C2.98654 4.49193 2.9781 4.52414 2.97084 4.55418C2.96358 4.58422 2.95754 4.60879 2.95148 4.63391C2.94543 4.65903 2.93696 4.69453 2.92968 4.72566L2.91139 4.80979C2.90469 4.84093 2.89797 4.87262 2.89182 4.90486C2.88566 4.9371 2.88016 4.96333 2.87462 4.99284C2.86907 5.02235 2.86229 5.05898 2.85669 5.09232C2.85109 5.12567 2.84613 5.15354 2.84114 5.18415L2.82428 5.28802C2.81928 5.31918 2.81483 5.35145 2.81038 5.38371C2.80593 5.41598 2.80025 5.4548 2.79514 5.49308C2.79004 5.53137 2.7868 5.55927 2.7829 5.59264C2.77901 5.62601 2.77387 5.66703 2.76933 5.70532C2.7648 5.74361 2.76208 5.77371 2.75873 5.80873C2.75538 5.84374 2.75078 5.88643 2.74737 5.92583C2.74396 5.96523 2.74065 5.99751 2.73783 6.03528C2.73501 6.07304 2.73098 6.11572 2.72812 6.15622C2.72526 6.19673 2.72306 6.23067 2.72023 6.26899C2.7174 6.3073 2.71505 6.35218 2.71274 6.39434C2.71042 6.43649 2.71162 6.47158 2.7065 6.51096C2.70138 6.55034 2.70525 6.5975 2.70121 6.64128C2.69716 6.68505 2.70005 6.72126 2.69946 6.76235C2.69887 6.80343 2.69817 6.85218 2.69751 6.89765C2.69686 6.94311 2.69632 6.98036 2.69571 7.02254C2.6951 7.06472 2.69437 7.11565 2.69369 7.16276C2.69301 7.20987 2.69245 7.24877 2.69182 7.29204C2.6912 7.33531 2.69042 7.38954 2.69255 7.43888C2.69469 7.48822 2.69129 7.52652 2.69065 7.57089C2.69001 7.61526 2.6926 7.67227 2.69357 7.72324C2.69454 7.7742 2.69227 7.81362 2.69672 7.8597C2.70118 7.90578 2.69976 7.96439 2.70184 8.01757C2.70392 8.07074 2.70448 8.11074 2.70664 8.15844C2.7088 8.20613 2.71132 8.26808 2.71394 8.3229C2.71657 8.37772 2.71825 8.41883 2.72096 8.46763C2.72367 8.51643 2.72786 8.58114 2.73102 8.63816C2.73418 8.69518 2.737 8.73631 2.74026 8.78621C2.74396 8.84488 2.74822 8.90465 2.75249 8.96388C2.75631 9.01434 2.75959 9.06369 2.76341 9.11469C2.76821 9.17612 2.77356 9.23919 2.77891 9.30172C2.78274 9.35218 2.78714 9.4021 2.79152 9.45366C2.7974 9.51893 2.80384 9.58532 2.80971 9.65169C2.81467 9.70216 2.81909 9.75153 2.82404 9.80255C2.831 9.87222 2.83907 9.94355 2.84658 10.0149C2.85156 10.0642 2.85654 10.1131 2.86208 10.163L2.86189 10.1767C2.8699 10.2524 2.87901 10.3303 2.88814 10.4072C2.89322 10.4494 2.89775 10.4906 2.90283 10.5328C2.90587 10.5586 2.90944 10.5877 2.91252 10.6113C2.92474 10.7106 2.93695 10.8105 2.95027 10.9126C2.95027 10.9126 2.7111 14.3988 2.23113 16.0788C2.22568 16.098 2.22347 16.118 2.22459 16.1379C2.07959 16.666 1.9741 17.2034 1.90895 17.7461C1.68289 19.6524 2.70428 21.4609 4.26825 22.771C5.80974 24.0616 7.7922 24.7592 9.83439 24.7865L17.7859 24.8928C19.8275 24.9201 21.8287 24.2762 23.4063 23.0273C25.008 21.7585 26.0806 19.978 25.9101 18.0658ZM13.9315 15.5942C13.9361 15.5882 13.9413 15.5828 13.9454 15.5768L13.9605 15.5946L13.9315 15.5942Z" fill="white"/>
<path d="M2.91206 10.6108C3.25568 9.93153 3.68405 9.29514 4.18769 8.71575L5.20711 7.54323C6.81703 5.90358 9.94397 4.6869 13.4727 4.68805L14.7242 4.70478C18.2504 4.79794 21.3422 6.09776 22.9042 7.77982L23.8894 8.97914C24.3762 9.57177 24.7861 10.2194 25.11 10.9076" stroke="#2D3035" stroke-width="0.8" stroke-linecap="round" stroke-linejoin="round"/>
<path d="M6.49592 6.93468C6.18118 6.34972 6.33634 6.4011 6.85667 5.82785C6.85667 5.82785 8.04947 3.12687 12.3975 2.93023C16.9806 2.72359 18.6363 6.11956 18.5537 6.08722C14.6752 4.57473 12.2981 5.88141 11.5593 6.21287C10.1266 6.29781 6.89267 7.67195 6.49592 6.93468Z" fill="#FF4081" stroke="#2D3035" stroke-width="0.8" stroke-linecap="round" stroke-linejoin="round"/>
<path d="M10.1978 6.08729C11.2294 5.57074 14.2186 4.94887 15.4345 5.02374C16.389 5.08307 17.8074 5.24339 18.8213 5.83605C19.0537 5.9712 19.2953 6.2259 19.1023 6.51096C18.9674 6.71078 18.6189 6.77296 18.3701 6.66554C17.3766 6.23313 16.5005 6.10636 15.4516 6.0885C13.9687 6.06319 12.2659 6.68418 11.1603 6.93074C10.7413 7.02814 10.3732 6.31208 10.1978 6.08729Z" fill="#2D3035"/>
<path d="M10.886 6.78749C12.4604 5.2827 12.7996 1.92271 15.165 1.31112C18.5077 0.445781 19.631 4.45647 18.2704 7.23466C18.2704 7.23356 16.0643 5.67002 10.886 6.78749Z" fill="#CC3367" stroke="#2D3035" stroke-width="0.8" stroke-linecap="round" stroke-linejoin="round"/>
<path d="M2.44456 15.4407C2.17819 16.1877 1.99836 16.9606 1.90835 17.7456C1.68229 19.6519 2.70368 21.4604 4.26765 22.7705C5.80914 24.0611 7.7916 24.7588 9.83379 24.7861L17.7853 24.8923C19.8269 24.9196 21.8281 24.2758 23.4057 23.0269C25.0079 21.7591 26.0811 19.9786 25.9101 18.0664C25.8428 17.2795 25.6851 16.5021 25.44 15.7486" fill="white"/>
<path d="M2.44456 15.4407C2.17819 16.1877 1.99836 16.9606 1.90835 17.7456C1.68229 19.6519 2.70368 21.4604 4.26765 22.7705C5.80914 24.0611 7.7916 24.7588 9.83379 24.7861L17.7853 24.8923C19.8269 24.9196 21.8281 24.2758 23.4057 23.0269C25.0079 21.7591 26.0811 19.9786 25.9101 18.0664C25.8428 17.2795 25.6851 16.5021 25.44 15.7486" stroke="#2D3035" stroke-width="0.8" stroke-linecap="round" stroke-linejoin="round"/>
<path d="M11.8044 14.9007C11.8615 14.9007 11.9163 14.9224 11.9569 14.9611C11.9974 14.9998 12.0205 15.0524 12.0211 15.1074C12.0274 15.6164 12.7353 15.644 12.7905 15.6453C13.6805 15.6342 13.7173 15.0594 13.7187 15.0002L13.712 14.4391C13.6274 14.4116 13.5503 14.3662 13.4863 14.3062C13.422 14.2626 13.3627 14.2126 13.3092 14.1571C13.1597 13.9962 13.1566 13.7715 13.3804 13.6797C13.5721 13.6023 13.8225 13.6034 14.0447 13.6185C14.0488 13.6172 14.053 13.6161 14.0573 13.6153C14.3041 13.5803 14.7827 13.5785 14.6469 13.9613C14.6232 14.0266 14.5793 14.0834 14.521 14.1239C14.5164 14.1357 14.5105 14.147 14.5035 14.1577C14.4146 14.2841 14.2903 14.3835 14.1449 14.4444L14.1518 14.9923C14.1514 15.0181 14.1763 15.6205 15.0684 15.6215L15.0929 15.6218C15.1242 15.6222 15.8575 15.5893 15.8513 15.0665C15.8509 15.0391 15.8561 15.0119 15.8667 14.9864C15.8772 14.9609 15.8929 14.9376 15.9128 14.918C15.9327 14.8983 15.9564 14.8827 15.9826 14.8719C16.0088 14.8611 16.037 14.8554 16.0655 14.8552V14.8552C16.1226 14.8554 16.1774 14.8771 16.218 14.9158C16.2586 14.9544 16.2819 15.0069 16.2827 15.0619C16.2914 15.8033 15.5166 16.0258 15.1005 16.0399L15.0692 16.0395C14.4582 16.039 14.1228 15.8176 13.9379 15.579C13.7557 15.8253 13.4189 16.0586 12.7827 16.0654C12.3715 16.0599 11.5909 15.8555 11.5823 15.1141C11.5817 15.0859 11.587 15.0578 11.598 15.0317C11.609 15.0055 11.6253 14.9817 11.6461 14.9618C11.6668 14.9418 11.6915 14.9261 11.7188 14.9156C11.746 14.9051 11.7751 14.9 11.8044 14.9007V14.9007Z" fill="#2D3035"/>
<path d="M18.5369 16.3335C19.0611 16.3405 19.4919 15.9371 19.4992 15.4325C19.5064 14.9279 19.0874 14.5131 18.5633 14.5061C18.0392 14.4991 17.6084 14.9025 17.6011 15.4071C17.5938 15.9117 18.0128 16.3265 18.5369 16.3335Z" fill="#FFF1F5"/>
<path d="M9.3263 16.4366C9.85044 16.4436 10.2812 16.0402 10.2885 15.5356C10.2958 15.031 9.87679 14.6162 9.35265 14.6092C8.82851 14.6022 8.39772 15.0056 8.39044 15.5102C8.38317 16.0148 8.80216 16.4296 9.3263 16.4366Z" fill="#FFF1F5"/>
<path d="M16.169 13.2797C16.1769 13.1902 16.2041 13.1032 16.2488 13.0244C16.2935 12.9456 16.3549 12.8766 16.4288 12.8219C16.673 12.7013 16.9211 12.7841 17.0705 12.9948C17.1497 13.1054 17.1677 13.2443 17.1731 13.3797C17.1789 13.4548 17.1793 13.5302 17.1744 13.6054C17.1697 13.7242 17.146 13.8417 17.1039 13.9535L17.1 13.9534C17.0863 13.99 17.0722 14.0265 17.0551 14.0624C16.96 14.2677 16.6531 14.3211 16.4641 14.2402C16.2752 14.1594 16.1271 13.9322 16.1916 13.726C16.1713 13.5781 16.1637 13.4288 16.169 13.2797V13.2797Z" fill="#2D3035"/>
<path d="M10.7853 13.2077C10.7874 13.1619 10.7965 13.1166 10.8122 13.0733C10.8234 13.0058 10.85 12.9415 10.8902 12.8852C10.9304 12.8289 10.9831 12.7819 11.0446 12.7477C11.2887 12.6271 11.5362 12.7099 11.6863 12.9206C11.7655 13.0313 11.7834 13.1701 11.7888 13.3055C11.7947 13.3806 11.795 13.4561 11.7896 13.5312C11.7851 13.65 11.7615 13.7675 11.7197 13.8793L11.7151 13.8793C11.7021 13.9158 11.6873 13.9523 11.6703 13.9882C11.5757 14.1935 11.2682 14.2469 11.0799 14.1661C10.8916 14.0852 10.7429 13.858 10.8073 13.6518C10.7876 13.5046 10.7802 13.3561 10.7853 13.2077V13.2077Z" fill="#2D3035"/>
<path d="M10.9942 6.77684C10.9942 6.77684 7.26114 2.91643 5.83274 2.42396C4.40434 1.9315 1.86214 2.52813 2.94974 10.9121L3.04562 10.9309C3.44574 11.0107 3.86223 10.9547 4.22428 10.7722C4.58632 10.5898 4.87157 10.2922 5.03152 9.93016V9.93016L6.22225 8.24108L7.81882 8.435L7.30471 6.99762L9.67852 7.7416C9.96193 7.72388 10.2342 7.62874 10.4635 7.46733C10.6927 7.30592 10.8695 7.08493 10.973 6.83025L10.9942 6.77684Z" fill="white"/>
<path d="M2.94975 10.912C2.91546 10.6595 2.886 10.4141 2.86137 10.1756C2.01398 2.49394 4.44738 1.94627 5.83275 2.42392C7.26115 2.91638 10.9942 6.7768 10.9942 6.7768" stroke="#2D3035" stroke-width="0.8" stroke-linecap="round" stroke-linejoin="round"/>
<path d="M9.784 7.49087C9.784 7.49087 7.82912 6.57773 6.76731 5.67816C5.12315 4.28648 4.35857 4.79181 5.03157 9.92841L9.784 7.49087Z" fill="#FFF1F5"/>
<path d="M5.13802 9.28621C5.18193 9.01731 5.32199 8.77163 5.53402 8.5916C5.74605 8.41157 6.01672 8.3085 6.29927 8.30021C6.3182 8.29836 6.33729 8.29861 6.35615 8.30097C7.07594 8.61357 7.81938 8.43011 7.81938 8.43011C7.14327 7.96907 7.32728 6.69004 7.32728 6.69004C8.21491 7.55495 9.6791 7.7356 9.6791 7.7356L8.37077 8.97823C8.37077 8.97823 6.71784 9.57634 6.66583 9.55264C6.61383 9.52893 5.03144 9.93019 5.03144 9.93019L5.13802 9.28621Z" fill="white"/>
<path d="M6.22207 8.24109C6.98057 8.64077 7.81894 8.43501 7.81894 8.43501C7.1427 7.97397 7.32674 6.69495 7.32674 6.69495C8.21455 7.55987 9.67902 7.74052 9.67902 7.74052" stroke="#2D3035" stroke-width="0.8" stroke-linecap="round" stroke-linejoin="round"/>
<path d="M4.4661 8.8954C4.4661 8.8954 4.37212 9.61187 5.03164 9.93023" stroke="#2D3035" stroke-width="0.8" stroke-linecap="round" stroke-linejoin="round"/>
<path d="M17.1441 6.85905C17.1441 6.85905 20.9871 3.09992 22.4291 2.64583C23.8711 2.19174 26.3952 2.8561 25.0663 11.2077L24.9699 11.224C24.5676 11.2931 24.1529 11.2259 23.7963 11.0339C23.4396 10.8418 23.1631 10.5368 23.0136 10.1706V10.1706L21.8715 8.45028L20.2705 8.59873L20.8259 7.17563L18.4315 7.85586C18.1488 7.83009 17.8795 7.72725 17.6553 7.55939C17.4311 7.39153 17.2612 7.1656 17.1656 6.90809L17.1441 6.85905Z" fill="white"/>
<path d="M25.0691 11.2077C25.1107 10.9562 25.1472 10.7116 25.1787 10.4739C26.2472 2.81787 23.8305 2.20536 22.4319 2.64578C20.9899 3.09987 17.1469 6.85901 17.1469 6.85901" stroke="#2D3035" stroke-width="0.8" stroke-linecap="round" stroke-linejoin="round"/>
<path d="M18.3333 7.60524C18.3333 7.60524 20.3137 6.74471 21.4011 5.87387C23.0847 4.52668 23.8344 5.05226 23.0136 10.1689L18.3333 7.60524Z" fill="#FFF1F5"/>
<path d="M22.9256 9.52405C22.8895 9.25408 22.7565 9.00475 22.5498 8.81912C22.343 8.63349 22.0754 8.52323 21.7932 8.50739C21.7744 8.50501 21.7553 8.50475 21.7363 8.50663C21.0078 8.79987 20.27 8.5966 20.27 8.5966C20.9591 8.15381 20.812 6.87035 20.812 6.87035C19.8998 7.7112 18.431 7.85264 18.431 7.85264L19.703 9.12977C19.703 9.12977 21.338 9.77184 21.3907 9.74953C21.4434 9.72722 23.0136 10.1706 23.0136 10.1706L22.9256 9.52405Z" fill="white"/>
<path d="M21.8722 8.45019C21.1024 8.82944 20.2703 8.60135 20.2703 8.60135C20.9596 8.15857 20.8125 6.87512 20.8125 6.87512C19.9001 7.71597 18.431 7.8574 18.431 7.8574" stroke="#2D3035" stroke-width="0.8" stroke-linecap="round" stroke-linejoin="round"/>
<path d="M23.6086 9.15122C23.6086 9.15122 23.6819 9.86992 23.0135 10.1705" stroke="#2D3035" stroke-width="0.8" stroke-linecap="round" stroke-linejoin="round"/>
<path d="M3.13589 11.9307C3.13589 11.9307 1.78529 12.3574 1.28489 13.1766" stroke="#2D3035" stroke-width="0.8" stroke-linecap="round" stroke-linejoin="round"/>
<path d="M2.99137 13.1586C2.99137 13.1586 1.79071 13.8919 1.51442 14.8043" stroke="#2D3035" stroke-width="0.8" stroke-linecap="round" stroke-linejoin="round"/>
<path d="M24.6259 11.961C24.6259 11.961 25.879 12.607 26.224 13.4974" stroke="#2D3035" stroke-width="0.8" stroke-linecap="round" stroke-linejoin="round"/>
<path d="M24.817 13.2155C24.817 13.2155 25.8538 14.1523 25.9477 15.0984" stroke="#2D3035" stroke-width="0.8" stroke-linecap="round" stroke-linejoin="round"/>
</svg>
