<svg width="24" height="24" viewBox="0 0 24 24" fill="none" xmlns="http://www.w3.org/2000/svg">
<path d="M5.1001 4.89999L19.1001 18.9" stroke="#C6C9CE" stroke-width="2" stroke-linecap="round"/>
<path fill-rule="evenodd" clip-rule="evenodd" d="M7.26611 6.14749C3.50654 8.1332 2 12 2 12C2 12 4.72727 19 12 19C14.5786 19 16.5858 18.12 18.1027 16.984L16.671 15.5524C15.4697 16.391 13.937 17 12 17C9.08448 17 7.08511 15.6204 5.75261 14.1547C5.08135 13.4163 4.59731 12.6719 4.28272 12.1129C4.26098 12.0742 4.2401 12.0366 4.22009 12C4.2401 11.9634 4.26098 11.9258 4.28272 11.8871C4.59731 11.3281 5.08135 10.5837 5.75261 9.84535C6.51978 9.00146 7.50799 8.18613 8.76482 7.64621L7.26611 6.14749ZM17.9001 14.5187C18.0206 14.3985 18.1363 14.2769 18.2474 14.1547C18.9187 13.4163 19.4027 12.6719 19.7173 12.1129C19.739 12.0742 19.7599 12.0366 19.7799 12C19.7599 11.9634 19.739 11.9258 19.7173 11.8871C19.4027 11.3281 18.9187 10.5837 18.2474 9.84535C16.9149 8.37959 14.9155 7 12 7C11.4735 7 10.9769 7.04499 10.5087 7.12735L8.85897 5.47762C9.79522 5.17815 10.8398 5 12 5C19.2727 5 22 12 22 12C22 12 21.2009 14.0511 19.3142 15.9328L17.9001 14.5187ZM3.8609 11.2671C3.86007 11.2651 3.85988 11.2646 3.86033 11.2657L3.8609 11.2671ZM3.8601 12.7348C3.86005 12.735 3.86032 12.7343 3.8609 12.7329L3.86033 12.7343L3.8601 12.7348Z" fill="#C6C9CE"/>
<path d="M10.1213 14.1213C11.2929 15.2929 13.1924 15.2929 14.364 14.1213L10.1213 9.87868C8.94975 11.0503 8.94975 12.9497 10.1213 14.1213Z" fill="#C6C9CE"/>
</svg>
