<svg width="24" height="24" viewBox="0 0 24 24" fill="none" xmlns="http://www.w3.org/2000/svg">
<path d="M3.41125 12.6033C3.27725 12.3652 3.17247 12.1598 3.09536 12C3.17247 11.8402 3.27725 11.6348 3.41125 11.3967C3.7532 10.7891 4.27931 9.97937 5.01267 9.17267C6.47437 7.56479 8.72406 6 12 6C15.2759 6 17.5256 7.56479 18.9873 9.17267C19.7207 9.97937 20.2468 10.7891 20.5888 11.3967C20.7228 11.6348 20.8275 11.8402 20.9046 12C20.8275 12.1598 20.7228 12.3652 20.5888 12.6033C20.2468 13.2109 19.7207 14.0206 18.9873 14.8273C17.5256 16.4352 15.2759 18 12 18C8.72406 18 6.47437 16.4352 5.01267 14.8273C4.27931 14.0206 3.7532 13.2109 3.41125 12.6033ZM2.93117 11.6354C2.93094 11.6348 2.93088 11.6347 2.93098 11.6349L2.93117 11.6354Z" stroke="#C6C9CE" stroke-width="2" stroke-linejoin="round"/>
<circle cx="12" cy="12" r="3" fill="#C6C9CE"/>
</svg>
